<svg version="1.1" id="Layer_1" xmlns="http://www.w3.org/2000/svg" xmlns:xlink="http://www.w3.org/1999/xlink" x="0px" y="0px"
	 width="100%" viewBox="0 0 1567 714" enable-background="new 0 0 1567 714" xml:space="preserve">
<path fill="#000000" opacity="1.000000" stroke="none" 
	d="
M1173.000000,715.000000 
	C782.000000,715.000000 391.500000,715.000000 1.000000,715.000000 
	C1.000000,477.000000 1.000000,239.000000 1.000000,1.000000 
	C523.333313,1.000000 1045.666626,1.000000 1568.000000,1.000000 
	C1568.000000,239.000000 1568.000000,477.000000 1568.000000,715.000000 
	C1436.500000,715.000000 1305.000000,715.000000 1173.000000,715.000000 
M320.373413,562.882568 
	C314.834290,551.556152 304.206970,546.168640 293.024902,547.129761 
	C286.542145,547.687012 280.026428,549.891602 276.213501,555.546143 
	C272.760101,560.667542 270.529846,566.613708 267.139832,573.446838 
	C266.697266,569.683105 266.077759,566.720093 266.056946,563.752930 
	C266.014954,557.773132 263.737213,553.291931 258.598053,550.051270 
	C251.337418,545.472839 243.381699,547.208679 235.643707,547.338562 
	C234.739777,547.353699 233.133270,550.021484 233.115631,551.474915 
	C232.929657,566.784851 232.922699,582.098999 233.149811,597.407837 
	C233.167801,598.620972 235.213959,600.715637 236.466431,600.834656 
	C240.907196,601.256958 245.425888,600.777588 249.890839,601.044556 
	C260.480499,601.677795 266.668030,595.955627 270.995056,586.671448 
	C273.278900,589.526550 275.138824,592.594666 277.692017,594.892517 
	C283.421326,600.048889 290.344086,601.442566 298.023926,601.101562 
	C310.341461,600.554565 320.146881,591.572998 321.801178,580.132812 
	C322.601929,574.595581 321.289856,568.752808 321.580597,562.353699 
	C324.192169,563.122375 326.803741,563.891052 330.000000,564.831787 
	C330.000000,565.851074 330.000000,567.477234 330.000000,569.103333 
	C330.000061,578.095398 329.862701,587.091431 330.123810,596.075928 
	C330.172150,597.739014 331.667511,600.628784 332.771515,600.768616 
	C337.107269,601.317627 341.553558,600.993347 346.691223,600.993347 
	C346.691223,588.236938 346.691223,576.203247 346.691223,564.696655 
	C350.311462,563.851257 353.102051,563.199524 355.706238,562.591370 
	C358.738495,563.263123 361.764618,563.933533 365.000000,564.650330 
	C365.000000,573.219543 365.000000,581.861145 365.000000,590.502808 
	C365.000000,601.043274 365.006012,600.820374 375.534180,601.104736 
	C380.036041,601.226318 381.212433,599.741943 381.093201,595.416870 
	C380.805695,584.984680 381.000000,574.539185 381.000000,564.127075 
	C390.799164,563.801758 391.006958,563.582703 391.000031,554.150940 
	C390.999908,553.984436 391.000366,553.817932 390.999939,553.651428 
	C390.984283,547.503662 390.520447,547.014465 384.557831,547.002747 
	C378.230103,546.990295 371.902130,547.031372 365.574646,546.990906 
	C359.685394,546.953247 353.837891,547.635986 347.896637,547.129150 
	C341.283936,546.565186 334.576691,547.216919 327.928284,546.930115 
	C322.774994,546.707886 320.459198,547.791931 320.962097,554.170044 
	C321.197388,557.153442 321.027557,560.168823 320.373413,562.882568 
M559.253174,119.030685 
	C558.474670,118.835510 557.649841,118.746185 556.924500,118.429321 
	C545.393921,113.392334 533.129517,110.886620 520.770813,110.193474 
	C501.727478,109.125427 482.613617,109.225800 463.527618,109.033165 
	C447.530334,108.871696 431.527832,109.150787 415.532806,108.901871 
	C411.129639,108.833328 409.904785,110.109940 409.908875,114.520454 
	C410.022400,237.678513 409.999237,360.836670 410.010101,483.994843 
	C410.010223,485.264923 410.163147,486.535034 410.257233,488.000000 
	C412.217194,488.000000 413.861969,488.000000 415.506714,488.000000 
	C448.504425,488.000000 481.503418,488.161285 514.499146,487.908264 
	C525.333313,487.825195 536.187317,486.961823 546.981750,485.927612 
	C560.551941,484.627411 573.342651,480.134857 585.692932,474.637115 
	C607.985901,464.713287 626.568848,450.056702 641.214844,430.371216 
	C654.734375,412.199615 663.009521,391.972870 664.849426,369.485626 
	C666.149109,353.601807 664.088440,337.872131 659.212036,322.563080 
	C652.396179,301.165466 639.989197,283.574921 623.308167,268.801453 
	C620.240234,266.084381 617.187500,263.350128 614.100586,260.599640 
	C626.350281,239.146545 628.725464,216.344421 623.952637,192.627258 
	C620.060974,173.288528 609.827209,157.302902 596.017273,143.677444 
	C585.589905,133.389267 573.420898,125.343346 559.253174,119.030685 
M369.960754,478.650146 
	C366.319336,467.532776 362.638153,456.428284 359.044312,445.295563 
	C349.688477,416.313934 340.354828,387.325134 331.042694,358.329407 
	C321.681335,329.180511 312.386658,300.010193 303.007324,270.867096 
	C293.726501,242.030075 284.345184,213.225449 275.066437,184.387772 
	C267.219208,159.999023 259.455627,135.583344 251.597809,111.000542 
	C224.530167,111.000542 197.549606,110.961449 170.570343,111.130768 
	C169.380920,111.138229 167.562225,112.826279 167.115784,114.107536 
	C159.312119,136.503510 151.649628,158.948898 144.011856,181.402405 
	C131.987000,216.752960 120.011383,252.120255 108.000237,287.475464 
	C95.679611,323.741669 83.334259,359.999481 71.013153,396.265503 
	C61.681438,423.732513 52.350220,451.199738 43.080967,478.687836 
	C42.100338,481.595886 41.538589,484.645172 40.688519,487.999817 
	C71.390327,487.999817 101.203445,487.963074 131.016144,488.058838 
	C133.879684,488.068024 134.344589,486.493835 135.052567,484.355255 
	C139.285614,471.568542 143.577530,458.799500 148.090088,446.109955 
	C148.560699,444.786530 150.602509,443.135193 151.921906,443.129425 
	C188.578415,442.968079 225.235779,443.015198 261.892944,442.966797 
	C264.400757,442.963470 265.410919,443.641632 266.225128,446.329254 
	C270.035187,458.905792 274.439880,471.301636 278.297150,483.864868 
	C279.318787,487.192474 280.755371,488.105896 284.160004,488.087219 
	C312.318542,487.933014 340.478333,488.003357 368.637726,487.987091 
	C369.732971,487.986450 370.828125,487.797638 372.470245,487.645966 
	C371.571045,484.676361 370.785614,482.082550 369.960754,478.650146 
M695.418945,370.938324 
	C696.253723,372.501556 697.255798,373.999237 697.897583,375.638031 
	C705.167725,394.202087 715.890625,410.688690 729.095703,425.434204 
	C747.690491,446.198090 770.100464,461.816345 795.669189,473.019684 
	C817.641418,482.647125 840.733032,487.420044 864.485474,487.724335 
	C878.460266,487.903381 892.559021,485.936951 906.444702,483.875916 
	C930.647705,480.283386 952.930420,471.147858 973.027039,457.278931 
	C982.516968,450.729767 990.834778,442.503387 1000.117737,435.622589 
	C1003.745789,432.933350 1003.870483,431.346680 1000.957764,428.444336 
	C982.070557,409.624512 963.205933,390.781738 944.414062,371.866852 
	C942.348206,369.787384 941.041138,369.545868 938.720642,371.662567 
	C929.474854,380.096222 919.167847,386.950623 907.576050,391.837616 
	C886.473999,400.734100 864.768799,401.257843 843.047485,395.395813 
	C823.384094,390.089142 806.968506,379.331604 793.769714,363.448090 
	C780.227722,347.151550 772.223450,328.572540 770.184448,307.770416 
	C768.361450,289.171478 771.928223,271.108734 780.345154,254.288681 
	C789.234802,236.523880 802.347412,222.550400 819.316162,212.169937 
	C841.610718,198.531509 865.675415,195.206497 890.911377,200.518707 
	C908.573914,204.236679 924.487915,211.811615 937.440857,224.861023 
	C940.287964,227.729309 943.069641,227.709885 946.210083,224.434387 
	C955.319397,214.933487 964.754761,205.745255 974.063660,196.435776 
	C984.035278,186.463562 994.008545,176.493134 1004.375000,166.128036 
	C1001.827759,163.848770 999.655701,161.730713 997.305054,159.833893 
	C989.459961,153.503250 981.869568,146.791428 973.598145,141.068909 
	C957.915161,130.218735 940.835632,122.136223 922.392761,116.945038 
	C908.250000,112.964233 893.869873,110.656868 879.236023,110.043152 
	C862.273560,109.331779 845.399292,110.442787 828.777100,114.036934 
	C812.865234,117.477478 797.526794,122.928848 783.242126,130.572754 
	C772.215393,136.473312 761.438049,143.302032 751.824890,151.258606 
	C741.192444,160.058792 731.228394,169.961151 722.399292,180.570267 
	C711.591614,193.556808 703.010010,208.157913 696.431396,223.914856 
	C690.565735,237.964294 686.041687,252.423447 684.226929,267.411987 
	C682.507263,281.615082 681.892517,296.065125 682.250977,310.369995 
	C682.525757,321.335297 684.494324,332.366394 686.783813,343.139984 
	C688.739197,352.341278 692.222961,361.217804 695.418945,370.938324 
M1394.453979,462.001373 
	C1408.589355,457.338989 1423.235229,453.814453 1436.744019,447.755188 
	C1458.563232,437.968201 1477.381714,423.677765 1493.237915,405.448334 
	C1506.529907,390.166840 1517.285767,373.510529 1525.054199,354.821716 
	C1533.660645,334.117004 1538.134155,312.544617 1538.914429,290.216522 
	C1539.143799,283.652802 1538.597290,277.026184 1537.934448,270.476196 
	C1537.116943,262.399597 1536.494507,254.205490 1534.584473,246.354965 
	C1527.914185,218.938370 1516.144531,193.988174 1497.824829,172.226715 
	C1482.275024,153.755722 1464.138916,138.586029 1442.775513,127.357803 
	C1420.506470,115.653618 1396.664917,108.868950 1371.670410,107.186989 
	C1353.162354,105.941513 1334.652100,107.141052 1316.452026,111.780724 
	C1298.905884,116.253685 1282.301025,122.668159 1266.556641,131.709351 
	C1246.481445,143.237534 1229.840820,158.671844 1215.451050,176.405579 
	C1205.007080,189.276474 1197.070190,203.898483 1190.877197,219.428207 
	C1183.123047,238.873306 1179.087280,259.061859 1178.106445,279.858551 
	C1177.766113,287.076233 1178.711792,294.350647 1178.988403,301.602264 
	C1179.510986,315.303864 1182.697266,328.478516 1186.846436,341.454102 
	C1192.671021,359.669495 1201.304932,376.491943 1212.500000,391.968292 
	C1222.660278,406.013977 1234.652588,418.402802 1248.519775,428.753662 
	C1262.072998,438.870148 1276.675903,447.276337 1292.620605,453.264709 
	C1308.564941,459.252899 1324.934814,463.545105 1341.875610,464.843567 
	C1352.807983,465.681519 1363.871338,465.342041 1374.847534,464.869171 
	C1381.119873,464.598938 1387.334839,463.003387 1394.453979,462.001373 
M480.866730,547.000000 
	C477.229523,546.871521 475.902740,548.791748 475.974823,552.235168 
	C476.075134,557.028198 476.000092,561.824951 476.000092,566.620117 
	C472.439423,562.056396 469.851471,557.435059 467.340698,552.772217 
	C465.492950,549.340698 463.744263,546.062012 458.778503,547.915039 
	C457.503754,548.390686 455.799713,548.022095 454.365753,547.708313 
	C449.857300,546.721558 448.023407,548.018250 448.011383,552.573730 
	C447.978394,565.071167 448.000031,577.568726 448.000000,590.066223 
	C448.000000,601.131409 448.002655,600.941833 459.112396,601.097961 
	C463.269287,601.156372 464.286041,599.634521 464.066620,595.832458 
	C463.790314,591.044800 464.000000,586.229126 464.000000,581.425598 
	C466.227356,583.935303 467.586243,586.470764 469.003693,588.972961 
	C476.059814,601.428833 476.062866,601.304138 487.855072,601.076416 
	C491.247559,601.010925 492.174072,599.732361 492.048492,596.593933 
	C491.861084,591.910706 491.999878,587.214478 491.999878,583.752014 
	C495.074005,587.507202 497.951263,592.507141 502.146545,595.855713 
	C512.820618,604.375427 525.700439,600.583862 537.792908,600.831726 
	C538.506348,600.846375 539.876831,598.783447 539.901062,597.664795 
	C540.081726,589.337036 539.929565,581.002747 540.037903,572.672485 
	C540.075378,569.786560 538.834900,568.908875 536.120361,568.963013 
	C530.123962,569.082520 524.118286,569.149902 518.126709,568.942322 
	C514.688110,568.823181 513.784546,570.312866 513.957458,573.428101 
	C514.145081,576.808289 514.000061,580.206909 514.000061,584.045715 
	C507.126617,578.111084 506.170227,574.038940 509.930878,568.591797 
	C513.468628,563.467529 518.513062,562.696899 525.122620,565.922546 
	C526.519775,566.604370 528.922974,566.997986 529.989441,566.260925 
	C533.610413,563.758362 536.840271,560.689880 540.305664,557.764709 
	C531.627014,548.739380 522.943298,545.452148 512.231323,547.963928 
	C501.609161,550.454590 495.407684,557.323730 492.000000,568.782227 
	C492.000000,563.989258 492.000000,560.659119 492.000000,557.329041 
	C492.000000,547.000000 492.000000,547.000000 480.866730,547.000000 
M683.615906,558.075745 
	C679.954590,555.052063 676.720825,550.628845 672.527161,549.347900 
	C666.894897,547.627686 660.512939,548.439392 654.468933,547.960571 
	C650.889343,547.676941 649.805969,549.142334 649.940735,552.577271 
	C650.160217,558.174133 650.000000,563.785828 650.000000,569.391296 
	C646.554932,554.612244 634.434448,545.856628 620.617310,547.181274 
	C606.679626,548.517517 597.820679,557.524841 596.153320,570.465271 
	C594.029846,586.946167 604.415161,598.627197 617.306824,600.756897 
	C631.402039,603.085388 644.332214,598.079834 650.000061,578.687317 
	C650.000061,585.253052 649.847839,591.056091 650.109131,596.840332 
	C650.172913,598.252563 651.347412,600.556335 652.427551,600.834656 
	C662.900146,603.533386 665.886841,601.285767 666.040955,591.095276 
	C666.044312,590.872681 666.301453,590.653931 666.787537,589.881348 
	C667.642822,591.553772 668.162415,593.034668 669.061829,594.229553 
	C670.822693,596.568848 672.494507,600.233765 674.742371,600.689331 
	C679.623108,601.678406 684.842957,600.994446 691.798828,600.994446 
	C688.742310,595.314453 686.180908,590.964600 684.054077,586.411621 
	C683.130432,584.434448 681.969421,581.281677 682.854187,579.961243 
	C687.547546,572.956421 687.454651,565.992065 683.615906,558.075745 
M775.514587,555.009766 
	C768.032715,547.779846 759.167114,545.214478 749.188660,548.088501 
	C738.408569,551.193176 731.802002,558.556580 729.896301,567.686829 
	C728.193237,564.293518 726.480713,559.199768 723.413574,555.125854 
	C717.336914,547.054260 708.203186,546.816528 699.020935,546.909973 
	C694.498962,546.956055 692.868225,548.588318 692.935242,553.075623 
	C693.121765,565.564270 693.000000,578.057495 693.000000,590.548950 
	C693.000000,601.046631 693.000977,600.949402 703.586548,601.055603 
	C707.039673,601.090210 709.455444,600.851929 709.170471,596.370056 
	C709.103577,595.319031 710.963074,593.561768 712.276611,593.102295 
	C720.250732,590.313110 726.054199,585.468811 728.569092,576.921509 
	C730.103638,580.794067 731.303955,584.588379 733.054749,588.108887 
	C740.602722,603.286682 764.085266,605.953125 775.341675,593.881165 
	C785.874878,582.584778 786.029663,567.300720 775.514587,555.009766 
M835.000122,562.503540 
	C831.208740,573.862000 827.417297,585.220459 823.554321,596.793152 
	C821.125671,592.704834 819.314575,588.660767 816.580811,585.387268 
	C814.598572,583.013672 814.971741,581.274231 816.311646,579.328125 
	C821.002319,572.514954 821.408447,565.617554 817.074768,558.513977 
	C812.851990,551.592346 806.819275,547.856018 798.572021,547.993469 
	C796.075684,548.035156 793.565491,548.160339 791.083252,547.968262 
	C784.409058,547.451660 782.759949,549.064026 782.968079,555.492371 
	C783.407043,569.052612 783.670593,582.618530 783.994873,596.182373 
	C784.032593,597.760864 784.000000,599.341125 784.000000,600.893555 
	C799.281677,601.300415 799.281677,601.300415 800.515808,590.382874 
	C801.684631,592.641785 802.243286,594.301208 803.274536,595.579224 
	C804.842651,597.522644 806.613708,600.587341 808.516113,600.758606 
	C817.906555,601.603760 827.367615,601.748352 836.806885,601.850586 
	C837.865906,601.862122 839.687561,600.175293 839.885925,599.051819 
	C840.744629,594.188354 844.820068,595.344727 847.505493,595.245728 
	C849.547852,595.170471 851.693481,597.217834 853.748169,598.399048 
	C855.133606,599.195435 856.369690,600.705872 857.797424,600.881409 
	C860.913269,601.264587 864.109375,600.961853 867.271606,601.009827 
	C870.830078,601.063782 871.470581,598.926025 870.591675,596.200195 
	C865.301453,579.792847 859.897278,563.422119 854.518494,547.000000 
	C851.108948,547.000000 847.937500,547.192505 844.800049,546.947998 
	C841.397705,546.682617 839.469849,547.392090 838.787781,551.302551 
	C838.165222,554.872192 836.335205,558.231262 835.000122,562.503540 
M175.366669,601.000000 
	C182.038071,600.994080 182.670044,600.188782 180.947266,593.789307 
	C180.824036,593.331543 180.328827,592.979431 180.181808,592.521851 
	C175.332458,577.430664 170.504547,562.332581 165.598114,547.000000 
	C162.113571,547.000000 158.616074,547.179138 155.146133,546.946899 
	C152.018234,546.737549 150.832214,547.778687 149.840195,550.956665 
	C145.696869,564.229980 141.041275,577.343506 136.573456,590.515564 
	C136.073441,585.895508 133.514252,584.625000 129.328598,584.940918 
	C125.600311,585.222351 121.833992,585.000000 118.000023,585.000000 
	C118.000023,575.481079 117.830261,566.651855 118.040489,557.831665 
	C118.343147,545.133423 117.290657,547.098816 106.232094,547.051270 
	C102.783051,547.036438 100.546059,550.258789 101.116440,553.604492 
	C101.495705,555.829163 101.948051,558.080383 101.961121,560.322144 
	C102.039474,573.766418 101.999977,587.211426 101.999977,601.000000 
	C107.398094,601.000000 112.386322,601.324707 117.313629,600.915649 
	C123.122719,600.433350 128.869781,602.003662 134.785141,600.556152 
	C137.826477,599.811829 141.474197,601.960693 144.789963,601.773865 
	C146.936127,601.652954 149.585510,600.147522 150.934723,598.422119 
	C153.465378,595.185974 162.075317,593.079346 163.440750,596.482422 
	C165.908844,602.633545 170.365845,600.628662 175.366669,601.000000 
M1369.000000,581.614380 
	C1369.000000,578.890686 1369.000000,576.166992 1369.000000,572.710815 
	C1377.321899,579.478455 1386.427124,581.583130 1395.782471,579.794006 
	C1406.391724,577.765198 1414.244507,571.262329 1417.937012,560.789734 
	C1422.113892,548.943542 1420.627686,537.674622 1412.400269,528.018372 
	C1404.313354,518.527100 1393.216797,516.113770 1381.610840,518.359802 
	C1370.156494,520.576538 1362.261841,527.998352 1359.121582,539.448303 
	C1357.761719,544.406616 1357.221802,549.701050 1357.090820,554.862732 
	C1356.799316,566.354858 1356.888184,577.860901 1357.030518,589.358643 
	C1357.181885,601.574097 1354.684448,599.918274 1367.908081,599.940613 
	C1368.179199,599.941101 1368.450806,599.658142 1369.000000,599.352966 
	C1369.000000,593.859375 1369.000000,588.221924 1369.000000,581.614380 
M1218.000000,557.515625 
	C1218.000000,571.606689 1218.000000,585.697693 1218.000000,600.000000 
	C1220.693970,600.000000 1222.860229,599.796814 1224.973633,600.043762 
	C1228.956177,600.509155 1230.245728,598.962158 1230.082275,594.974854 
	C1229.790039,587.848633 1230.000000,580.701843 1230.000000,573.287537 
	C1231.295288,573.963623 1232.496216,574.384155 1233.453003,575.121521 
	C1244.431396,583.581970 1263.864502,580.903870 1272.603027,570.926697 
	C1280.234009,562.214050 1282.037354,552.129211 1279.585571,541.157471 
	C1278.126221,534.627014 1274.837402,529.213623 1269.532837,524.742004 
	C1263.099976,519.319519 1255.915894,517.791016 1247.826050,517.936279 
	C1234.667725,518.172668 1223.620728,525.779358 1220.044434,538.639160 
	C1218.456665,544.348450 1218.627441,550.546814 1218.000000,557.515625 
M1347.975708,537.847595 
	C1345.724121,534.139038 1343.891479,530.079529 1341.136841,526.792542 
	C1334.712280,519.125793 1325.916138,517.653625 1316.374023,517.916077 
	C1306.353394,518.191528 1298.381592,522.733093 1293.351318,530.608643 
	C1282.582031,547.469421 1287.811523,570.248169 1306.861938,577.954895 
	C1318.444946,582.640747 1335.121704,580.134766 1343.850464,569.459595 
	C1344.520264,568.640320 1344.441284,566.266235 1343.739380,565.426331 
	C1340.141724,561.121460 1335.127319,560.973999 1330.953125,564.503845 
	C1319.874023,573.872620 1304.979370,567.354309 1300.740601,555.030457 
	C1307.026855,555.313782 1312.812012,555.652161 1318.602173,555.818054 
	C1328.055176,556.088745 1337.520264,556.873047 1346.457886,552.284912 
	C1349.599487,550.672180 1350.435059,548.545471 1349.941040,545.586243 
	C1349.548706,543.236572 1348.666870,540.968628 1347.975708,537.847595 
M1011.547302,601.000000 
	C1012.545532,601.000000 1013.543701,601.000244 1014.541931,600.999939 
	C1020.998474,600.997803 1020.999390,600.997803 1020.999817,594.427551 
	C1021.000488,582.116577 1021.000000,569.805603 1021.000000,557.494629 
	C1021.000000,546.528809 1021.000000,546.528870 1009.926819,546.999268 
	C1009.760742,547.006348 1009.594116,547.000122 1009.427734,547.001160 
	C1006.290405,547.021118 1004.761292,548.260986 1004.932373,551.732361 
	C1005.191711,556.994629 1005.000122,562.279175 1005.000122,568.910400 
	C1001.055542,561.768311 998.014221,555.943970 994.614807,550.336731 
	C993.796204,548.986511 991.807373,547.574219 990.327454,547.542053 
	C985.980408,547.447693 981.618530,548.033081 977.000000,548.371521 
	C977.000000,562.127686 977.000000,575.740417 977.000000,589.353149 
	C977.000000,601.823792 976.995300,601.737915 989.366699,601.063232 
	C992.246826,600.906250 993.099731,599.781982 993.035950,597.095947 
	C992.912476,591.897095 992.999878,586.693237 992.999878,580.312256 
	C996.069336,585.858643 998.614075,590.245544 1000.949951,594.741028 
	C1003.016052,598.717224 1005.024353,602.545959 1011.547302,601.000000 
M1090.000000,575.500000 
	C1090.000000,582.663513 1090.151733,589.831543 1089.934448,596.988464 
	C1089.829956,600.434021 1091.386108,600.311523 1093.812744,599.699585 
	C1093.812744,434.437897 1093.812744,269.401367 1093.812744,104.023750 
	C1092.425659,104.139008 1091.254639,104.236313 1090.000000,104.340569 
	C1090.000000,261.320129 1090.000000,417.910065 1090.000000,575.500000 
M936.827576,550.014771 
	C936.066223,550.644348 935.365967,551.372314 934.534241,551.888672 
	C923.463623,558.761780 921.276672,570.599243 923.797424,582.302063 
	C926.010498,592.576477 937.264282,601.627686 950.460022,601.233398 
	C968.247437,600.701904 979.745972,584.874207 975.352783,566.864319 
	C971.627319,551.591675 953.801819,541.941162 936.827576,550.014771 
M28.037773,569.679138 
	C25.267286,578.028564 22.589207,586.410217 19.687895,594.713928 
	C18.205204,598.957458 19.766214,602.228088 23.690393,601.943604 
	C27.386091,601.675720 31.052628,601.005554 34.830696,600.499146 
	C37.147366,595.615234 38.657940,594.343323 44.543358,595.227966 
	C46.871967,595.578003 48.832928,598.374084 50.961288,600.056396 
	C53.871262,601.000000 57.357281,601.013794 60.843151,600.996765 
	C66.149757,600.970825 66.957657,600.000610 65.356720,594.818420 
	C61.438213,582.134583 57.492348,569.457092 53.351646,556.844543 
	C49.976639,546.564270 49.844482,546.607727 39.077724,546.999268 
	C38.911633,547.005310 38.690197,546.930298 38.587234,547.011047 
	C37.375736,547.962219 35.561150,548.699707 35.088062,549.943359 
	C32.699535,556.222351 30.661510,562.634583 28.037773,569.679138 
M1428.804443,541.270935 
	C1431.483276,544.176208 1433.643555,548.198608 1436.957031,549.736145 
	C1442.530273,552.322205 1448.824829,553.371277 1454.837891,554.985107 
	C1458.495728,555.966797 1462.663452,556.959656 1462.802124,561.385559 
	C1462.917603,565.070618 1459.798096,566.922424 1456.202515,568.098755 
	C1448.899292,570.488220 1443.054443,567.698853 1437.252563,563.836182 
	C1435.899292,562.935242 1433.503906,561.782166 1432.613281,562.350830 
	C1430.124512,563.939880 1428.102295,566.307251 1426.102417,568.551392 
	C1425.865723,568.817139 1426.711304,570.441162 1427.392090,571.071960 
	C1437.849243,580.760986 1449.904663,582.182007 1463.128784,578.049683 
	C1470.745605,575.669617 1475.621460,569.124756 1475.100586,560.900940 
	C1474.618896,553.293274 1471.298340,548.566589 1462.935547,546.006287 
	C1456.983032,544.184021 1450.804443,543.012878 1445.009766,540.807678 
	C1442.921631,540.013000 1439.933228,536.404846 1440.379517,535.210205 
	C1441.301514,532.741638 1443.928101,530.338501 1446.440552,529.156799 
	C1451.343750,526.850586 1456.172974,528.833618 1460.587158,531.255615 
	C1465.142090,533.754883 1471.058105,532.173828 1472.692627,527.534973 
	C1473.003418,526.653198 1472.330322,524.870911 1471.530273,524.236755 
	C1462.786011,517.304626 1452.450317,516.558167 1442.221802,518.512085 
	C1433.635254,520.152405 1426.114014,528.109375 1428.804443,541.270935 
M195.952057,601.998840 
	C197.449387,601.999207 198.947418,601.969971 200.443954,602.004822 
	C210.272400,602.233398 215.366943,596.624329 217.794952,589.299133 
	C220.507080,581.116760 217.441208,573.542786 210.350204,568.758850 
	C209.296692,568.048035 208.383789,567.128906 207.041855,566.000000 
	C208.616867,566.000000 209.613831,566.023926 210.609344,565.996033 
	C216.347305,565.835205 217.115295,564.552490 216.086990,558.980408 
	C214.772171,551.855896 209.875000,548.858398 203.656693,546.915405 
	C195.666870,544.418884 187.047073,548.232422 183.652664,555.826599 
	C179.397141,565.347412 184.363968,574.947510 190.698547,577.952148 
	C194.527252,579.768311 198.431946,581.424194 203.277267,583.587280 
	C197.637039,588.111511 197.056763,583.465210 195.373123,581.000122 
	C191.666107,581.000122 187.845306,581.035461 184.025497,580.989868 
	C180.387054,580.946472 179.695007,582.605225 180.415649,585.990295 
	C182.182800,594.291077 186.817398,599.740295 195.952057,601.998840 
M593.297729,551.027405 
	C581.468750,543.677063 568.037842,546.012451 559.636475,555.236023 
	C546.604431,569.543457 550.171570,591.941833 569.446594,599.659180 
	C577.981750,603.076599 591.080505,601.594238 597.458008,593.959717 
	C598.248962,593.012878 598.970337,591.097656 598.541870,590.188416 
	C595.488464,583.710083 588.802612,581.152893 582.621582,584.101074 
	C579.011658,585.823059 575.966736,585.232483 573.219482,582.692871 
	C570.140442,579.846558 567.159546,577.068604 568.907288,571.979492 
	C571.651550,563.988647 577.980347,561.534485 585.368164,565.589417 
	C586.982178,566.475220 590.246521,566.661133 591.392639,565.642029 
	C594.332764,563.027527 596.583984,559.606934 598.877380,556.344543 
	C599.109131,556.014893 597.882751,554.433472 597.098633,553.675354 
	C596.183594,552.790771 595.010925,552.172546 593.297729,551.027405 
M409.000000,563.512085 
	C408.999817,559.848999 409.097778,556.182495 408.971313,552.523804 
	C408.849365,548.995667 407.562469,546.489258 403.324951,546.973022 
	C401.845703,547.141907 400.330963,546.998047 398.832428,547.000427 
	C392.983551,547.009766 392.025146,547.925720 392.009705,553.860107 
	C391.977631,566.181335 391.943573,578.503052 392.037201,590.823608 
	C392.062592,594.162292 392.541626,597.497437 392.803406,600.723450 
	C404.289276,600.723450 415.029175,600.723450 425.999817,600.723450 
	C425.999817,596.643677 425.867035,592.832092 426.041870,589.034668 
	C426.181427,586.003967 425.040039,584.829285 421.985779,584.955811 
	C417.728882,585.132080 413.459198,585.000183 409.000000,585.000183 
	C409.000000,577.785400 409.000000,571.146667 409.000000,563.512085 
M895.000000,585.492554 
	C895.000000,578.384399 895.000000,571.276245 895.000000,565.669861 
	C898.811523,563.819641 903.221558,563.084351 904.068054,560.941406 
	C905.365234,557.657410 904.482788,553.362366 903.912903,549.589050 
	C903.756958,548.556396 901.432434,547.150146 900.071716,547.114624 
	C891.427551,546.889282 882.772217,547.120239 874.125916,546.940491 
	C870.705261,546.869446 869.680359,548.300842 869.975891,551.415100 
	C870.116638,552.898865 870.000000,554.406982 870.000000,555.904114 
	C869.999939,563.773499 870.000183,563.768921 878.045837,564.071472 
	C878.301514,564.081055 878.545532,564.400757 878.773926,564.561096 
	C878.844360,564.737610 878.954773,564.885437 878.955139,565.033508 
	C878.975891,573.184204 878.994446,581.334839 878.998413,589.485535 
	C879.004517,601.948120 879.008850,602.041199 891.479675,600.857361 
	C892.748718,600.736877 894.669556,598.752625 894.838623,597.445740 
	C895.304199,593.846375 894.999756,590.147339 895.000000,585.492554 
M89.260796,600.941772 
	C89.507202,597.708435 89.931328,594.477051 89.966095,591.241455 
	C90.063469,582.179504 90.000008,573.115845 90.000008,564.085815 
	C100.001503,563.867737 100.001495,563.867737 100.000015,554.629761 
	C99.999908,553.964111 99.954155,553.294739 100.007515,552.633423 
	C100.327438,548.668335 98.630081,546.854187 94.542816,546.960083 
	C88.556053,547.115173 82.562164,547.024963 76.571526,546.995056 
	C62.040684,546.922485 65.542740,546.633545 64.928810,559.059204 
	C64.758957,562.496887 66.942200,563.249756 69.269325,563.913818 
	C70.616440,564.298157 72.162987,563.983643 74.000053,563.983643 
	C74.000053,574.751831 74.056648,585.204773 73.969978,595.656494 
	C73.938805,599.416382 75.056343,601.499939 79.317719,601.058899 
	C82.281517,600.752197 85.302406,600.997131 89.260796,600.941772 
M906.000000,588.462646 
	C906.000549,591.289185 905.657715,594.175964 906.139160,596.918091 
	C906.400208,598.405396 907.948608,600.680054 909.118347,600.812195 
	C913.313904,601.286438 917.595642,600.998108 922.000000,600.998108 
	C922.000000,585.926453 922.070679,571.476318 921.977722,557.027222 
	C921.902954,545.404236 923.755249,547.277222 912.023071,546.944092 
	C907.501221,546.815674 905.860107,548.570557 905.935669,553.057800 
	C906.128723,564.526855 906.000000,576.001343 906.000000,588.462646 
M444.000000,585.492432 
	C444.000000,576.018799 444.000000,566.545227 444.000000,557.071594 
	C444.000000,546.766541 444.000702,546.876831 433.454437,546.944336 
	C429.381775,546.970398 427.914001,548.659729 427.954285,552.622864 
	C428.079224,564.920654 428.000000,577.220520 428.000000,589.519592 
	C427.999969,601.961304 428.008881,602.054260 440.494080,600.857117 
	C441.759552,600.735718 443.670197,598.745544 443.839172,597.436401 
	C444.303375,593.839783 443.999786,590.144165 444.000000,585.492432 
M1486.000000,527.560913 
	C1486.000000,543.215576 1486.187012,558.873718 1485.895630,574.522949 
	C1485.797485,579.796326 1488.929199,578.943542 1492.067017,579.021912 
	C1495.381592,579.104675 1498.186035,579.453796 1498.104126,574.388123 
	C1497.829834,557.405579 1498.005615,540.415894 1497.986450,523.428894 
	C1497.985229,522.328979 1497.793335,521.229370 1497.707520,520.314331 
	C1493.633911,520.314331 1489.895020,520.314331 1486.000000,520.314331 
	C1486.000000,522.609375 1486.000000,524.593445 1486.000000,527.560913 
M1489.927612,500.023041 
	C1484.252075,503.070740 1482.575073,511.290741 1487.480713,513.522339 
	C1490.106567,514.716858 1494.200195,514.501221 1496.864380,513.266724 
	C1499.355591,512.112366 1500.336304,508.994171 1499.230103,505.394135 
	C1497.801636,500.745087 1494.746338,499.949585 1489.927612,500.023041 
M1508.511719,565.999878 
	C1503.067505,567.221130 1500.587769,569.941040 1501.376099,573.826538 
	C1502.277100,578.267273 1505.340698,580.877441 1509.731812,579.803284 
	C1511.752441,579.308960 1514.244385,576.988770 1514.797852,575.013306 
	C1516.028198,570.620850 1514.621094,566.893799 1508.511719,565.999878 
z"/>
<path fill="#FFFFFF" opacity="1.000000" stroke="none" 
	d="
M559.596558,119.226227 
	C573.420898,125.343346 585.589905,133.389267 596.017273,143.677444 
	C609.827209,157.302902 620.060974,173.288528 623.952637,192.627258 
	C628.725464,216.344421 626.350281,239.146545 614.100586,260.599640 
	C617.187500,263.350128 620.240234,266.084381 623.308167,268.801453 
	C639.989197,283.574921 652.396179,301.165466 659.212036,322.563080 
	C664.088440,337.872131 666.149109,353.601807 664.849426,369.485626 
	C663.009521,391.972870 654.734375,412.199615 641.214844,430.371216 
	C626.568848,450.056702 607.985901,464.713287 585.692932,474.637115 
	C573.342651,480.134857 560.551941,484.627411 546.981750,485.927612 
	C536.187317,486.961823 525.333313,487.825195 514.499146,487.908264 
	C481.503418,488.161285 448.504425,488.000000 415.506714,488.000000 
	C413.861969,488.000000 412.217194,488.000000 410.257233,488.000000 
	C410.163147,486.535034 410.010223,485.264923 410.010101,483.994843 
	C409.999237,360.836670 410.022400,237.678513 409.908875,114.520454 
	C409.904785,110.109940 411.129639,108.833328 415.532806,108.901871 
	C431.527832,109.150787 447.530334,108.871696 463.527618,109.033165 
	C482.613617,109.225800 501.727478,109.125427 520.770813,110.193474 
	C533.129517,110.886620 545.393921,113.392334 556.924500,118.429321 
	C557.649841,118.746185 558.474670,118.835510 559.596558,119.226227 
M498.000000,343.500031 
	C498.000000,361.915680 498.000000,380.331299 498.000000,398.003418 
	C509.910858,398.003418 521.374634,398.945282 532.616882,397.769348 
	C547.262573,396.237427 560.002502,389.683685 569.432739,377.973572 
	C574.571838,371.592041 578.249207,364.459961 576.326599,355.754852 
	C572.063293,336.451416 557.884521,327.658722 540.668945,321.975098 
	C527.841736,317.740265 514.622314,319.335999 501.524445,318.972137 
	C498.499207,318.888123 497.930511,320.447083 497.968445,323.021729 
	C498.063995,329.513245 498.000031,336.007141 498.000000,343.500031 
M525.433533,227.080750 
	C527.786682,225.716171 530.362244,224.626770 532.452637,222.937134 
	C539.667114,217.105881 539.245911,211.817505 532.270996,205.592941 
	C522.886475,197.217941 511.629364,197.960754 500.423065,198.128586 
	C499.606323,198.140808 498.129791,199.743378 498.114655,200.626358 
	C497.947784,210.366348 498.009766,220.110291 498.009766,231.098328 
	C507.473541,229.885117 516.173035,228.769882 525.433533,227.080750 
z"/>
<path fill="#FFFFFF" opacity="1.000000" stroke="none" 
	d="
M369.980469,479.069458 
	C370.785614,482.082550 371.571045,484.676361 372.470245,487.645966 
	C370.828125,487.797638 369.732971,487.986450 368.637726,487.987091 
	C340.478333,488.003357 312.318542,487.933014 284.160004,488.087219 
	C280.755371,488.105896 279.318787,487.192474 278.297150,483.864868 
	C274.439880,471.301636 270.035187,458.905792 266.225128,446.329254 
	C265.410919,443.641632 264.400757,442.963470 261.892944,442.966797 
	C225.235779,443.015198 188.578415,442.968079 151.921906,443.129425 
	C150.602509,443.135193 148.560699,444.786530 148.090088,446.109955 
	C143.577530,458.799500 139.285614,471.568542 135.052567,484.355255 
	C134.344589,486.493835 133.879684,488.068024 131.016144,488.058838 
	C101.203445,487.963074 71.390327,487.999817 40.688519,487.999817 
	C41.538589,484.645172 42.100338,481.595886 43.080967,478.687836 
	C52.350220,451.199738 61.681438,423.732513 71.013153,396.265503 
	C83.334259,359.999481 95.679611,323.741669 108.000237,287.475464 
	C120.011383,252.120255 131.987000,216.752960 144.011856,181.402405 
	C151.649628,158.948898 159.312119,136.503510 167.115784,114.107536 
	C167.562225,112.826279 169.380920,111.138229 170.570343,111.130768 
	C197.549606,110.961449 224.530167,111.000542 251.597809,111.000542 
	C259.455627,135.583344 267.219208,159.999023 275.066437,184.387772 
	C284.345184,213.225449 293.726501,242.030075 303.007324,270.867096 
	C312.386658,300.010193 321.681335,329.180511 331.042694,358.329407 
	C340.354828,387.325134 349.688477,416.313934 359.044312,445.295563 
	C362.638153,456.428284 366.319336,467.532776 369.980469,479.069458 
M214.999542,287.450775 
	C213.070816,281.293427 211.142105,275.136047 208.801178,267.662781 
	C198.705872,297.314545 189.145996,325.393738 179.479126,353.787170 
	C199.161728,353.787170 217.852631,353.787170 236.825775,353.787170 
	C229.501038,331.767761 222.268112,310.024292 214.999542,287.450775 
z"/>
<path fill="#FFFFFF" opacity="1.000000" stroke="none" 
	d="
M695.224792,370.588135 
	C692.222961,361.217804 688.739197,352.341278 686.783813,343.139984 
	C684.494324,332.366394 682.525757,321.335297 682.250977,310.369995 
	C681.892517,296.065125 682.507263,281.615082 684.226929,267.411987 
	C686.041687,252.423447 690.565735,237.964294 696.431396,223.914856 
	C703.010010,208.157913 711.591614,193.556808 722.399292,180.570267 
	C731.228394,169.961151 741.192444,160.058792 751.824890,151.258606 
	C761.438049,143.302032 772.215393,136.473312 783.242126,130.572754 
	C797.526794,122.928848 812.865234,117.477478 828.777100,114.036934 
	C845.399292,110.442787 862.273560,109.331779 879.236023,110.043152 
	C893.869873,110.656868 908.250000,112.964233 922.392761,116.945038 
	C940.835632,122.136223 957.915161,130.218735 973.598145,141.068909 
	C981.869568,146.791428 989.459961,153.503250 997.305054,159.833893 
	C999.655701,161.730713 1001.827759,163.848770 1004.375000,166.128036 
	C994.008545,176.493134 984.035278,186.463562 974.063660,196.435776 
	C964.754761,205.745255 955.319397,214.933487 946.210083,224.434387 
	C943.069641,227.709885 940.287964,227.729309 937.440857,224.861023 
	C924.487915,211.811615 908.573914,204.236679 890.911377,200.518707 
	C865.675415,195.206497 841.610718,198.531509 819.316162,212.169937 
	C802.347412,222.550400 789.234802,236.523880 780.345154,254.288681 
	C771.928223,271.108734 768.361450,289.171478 770.184448,307.770416 
	C772.223450,328.572540 780.227722,347.151550 793.769714,363.448090 
	C806.968506,379.331604 823.384094,390.089142 843.047485,395.395813 
	C864.768799,401.257843 886.473999,400.734100 907.576050,391.837616 
	C919.167847,386.950623 929.474854,380.096222 938.720642,371.662567 
	C941.041138,369.545868 942.348206,369.787384 944.414062,371.866852 
	C963.205933,390.781738 982.070557,409.624512 1000.957764,428.444336 
	C1003.870483,431.346680 1003.745789,432.933350 1000.117737,435.622589 
	C990.834778,442.503387 982.516968,450.729767 973.027039,457.278931 
	C952.930420,471.147858 930.647705,480.283386 906.444702,483.875916 
	C892.559021,485.936951 878.460266,487.903381 864.485474,487.724335 
	C840.733032,487.420044 817.641418,482.647125 795.669189,473.019684 
	C770.100464,461.816345 747.690491,446.198090 729.095703,425.434204 
	C715.890625,410.688690 705.167725,394.202087 697.897583,375.638031 
	C697.255798,373.999237 696.253723,372.501556 695.224792,370.588135 
z"/>
<path fill="#FCFBFC" opacity="1.000000" stroke="none" 
	d="
M1394.014893,462.002960 
	C1387.334839,463.003387 1381.119873,464.598938 1374.847534,464.869171 
	C1363.871338,465.342041 1352.807983,465.681519 1341.875610,464.843567 
	C1324.934814,463.545105 1308.564941,459.252899 1292.620605,453.264709 
	C1276.675903,447.276337 1262.072998,438.870148 1248.519775,428.753662 
	C1234.652588,418.402802 1222.660278,406.013977 1212.500000,391.968292 
	C1201.304932,376.491943 1192.671021,359.669495 1186.846436,341.454102 
	C1182.697266,328.478516 1179.510986,315.303864 1178.988403,301.602264 
	C1178.711792,294.350647 1177.766113,287.076233 1178.106445,279.858551 
	C1179.087280,259.061859 1183.123047,238.873306 1190.877197,219.428207 
	C1197.070190,203.898483 1205.007080,189.276474 1215.451050,176.405579 
	C1229.840820,158.671844 1246.481445,143.237534 1266.556641,131.709351 
	C1282.301025,122.668159 1298.905884,116.253685 1316.452026,111.780724 
	C1334.652100,107.141052 1353.162354,105.941513 1371.670410,107.186989 
	C1396.664917,108.868950 1420.506470,115.653618 1442.775513,127.357803 
	C1464.138916,138.586029 1482.275024,153.755722 1497.824829,172.226715 
	C1516.144531,193.988174 1527.914185,218.938370 1534.584473,246.354965 
	C1536.494507,254.205490 1537.116943,262.399597 1537.934448,270.476196 
	C1538.597290,277.026184 1539.143799,283.652802 1538.914429,290.216522 
	C1538.134155,312.544617 1533.660645,334.117004 1525.054199,354.821716 
	C1517.285767,373.510529 1506.529907,390.166840 1493.237915,405.448334 
	C1477.381714,423.677765 1458.563232,437.968201 1436.744019,447.755188 
	C1423.235229,453.814453 1408.589355,457.338989 1394.014893,462.002960 
M1233.968018,175.475861 
	C1203.675903,210.173737 1189.402100,250.477692 1191.845947,296.533417 
	C1193.481079,327.347992 1203.583618,355.268280 1220.953979,380.709808 
	C1223.279419,384.115692 1225.345215,384.621246 1229.123413,383.462006 
	C1296.293213,362.853058 1351.755371,324.789185 1396.434570,270.894745 
	C1424.142822,237.471817 1443.940796,199.626816 1457.283203,158.353134 
	C1458.297119,155.216599 1458.571899,152.948059 1455.295166,150.702026 
	C1417.627808,124.883408 1376.320923,114.896912 1331.163696,122.369278 
	C1292.924805,128.696808 1260.622925,146.285980 1233.968018,175.475861 
M1242.652832,405.853088 
	C1286.769165,446.560913 1338.559326,460.849915 1396.806152,447.757751 
	C1498.792480,424.834229 1553.903442,313.425354 1511.033691,218.570633 
	C1508.040771,211.948608 1504.323486,205.654022 1500.943115,199.207169 
	C1499.984619,201.049149 1500.057617,202.373962 1500.342041,203.651749 
	C1510.971191,251.413345 1493.011841,297.661285 1452.825317,325.650116 
	C1431.472168,340.521942 1407.302979,348.897858 1382.329346,354.935303 
	C1345.034912,363.951447 1307.558716,372.212830 1270.234863,381.110565 
	C1257.050903,384.253540 1244.087646,388.321381 1229.925171,392.273468 
	C1234.503052,397.170746 1238.328491,401.263062 1242.652832,405.853088 
z"/>
<path fill="#FFFFFF" opacity="1.000000" stroke="none" 
	d="
M481.324280,547.000000 
	C492.000000,547.000000 492.000000,547.000000 492.000000,557.329041 
	C492.000000,560.659119 492.000000,563.989258 492.000000,568.782227 
	C495.407684,557.323730 501.609161,550.454590 512.231323,547.963928 
	C522.943298,545.452148 531.627014,548.739380 540.305664,557.764709 
	C536.840271,560.689880 533.610413,563.758362 529.989441,566.260925 
	C528.922974,566.997986 526.519775,566.604370 525.122620,565.922546 
	C518.513062,562.696899 513.468628,563.467529 509.930878,568.591797 
	C506.170227,574.038940 507.126617,578.111084 514.000061,584.045715 
	C514.000061,580.206909 514.145081,576.808289 513.957458,573.428101 
	C513.784546,570.312866 514.688110,568.823181 518.126709,568.942322 
	C524.118286,569.149902 530.123962,569.082520 536.120361,568.963013 
	C538.834900,568.908875 540.075378,569.786560 540.037903,572.672485 
	C539.929565,581.002747 540.081726,589.337036 539.901062,597.664795 
	C539.876831,598.783447 538.506348,600.846375 537.792908,600.831726 
	C525.700439,600.583862 512.820618,604.375427 502.146545,595.855713 
	C497.951263,592.507141 495.074005,587.507202 491.999878,583.752014 
	C491.999878,587.214478 491.861084,591.910706 492.048492,596.593933 
	C492.174072,599.732361 491.247559,601.010925 487.855072,601.076416 
	C476.062866,601.304138 476.059814,601.428833 469.003693,588.972961 
	C467.586243,586.470764 466.227356,583.935303 464.000000,581.425598 
	C464.000000,586.229126 463.790314,591.044800 464.066620,595.832458 
	C464.286041,599.634521 463.269287,601.156372 459.112396,601.097961 
	C448.002655,600.941833 448.000000,601.131409 448.000000,590.066223 
	C448.000031,577.568726 447.978394,565.071167 448.011383,552.573730 
	C448.023407,548.018250 449.857300,546.721558 454.365753,547.708313 
	C455.799713,548.022095 457.503754,548.390686 458.778503,547.915039 
	C463.744263,546.062012 465.492950,549.340698 467.340698,552.772217 
	C469.851471,557.435059 472.439423,562.056396 476.000092,566.620117 
	C476.000092,561.824951 476.075134,557.028198 475.974823,552.235168 
	C475.902740,548.791748 477.229523,546.871521 481.324280,547.000000 
z"/>
<path fill="#FFFFFF" opacity="1.000000" stroke="none" 
	d="
M683.869141,558.376099 
	C687.454651,565.992065 687.547546,572.956421 682.854187,579.961243 
	C681.969421,581.281677 683.130432,584.434448 684.054077,586.411621 
	C686.180908,590.964600 688.742310,595.314453 691.798828,600.994446 
	C684.842957,600.994446 679.623108,601.678406 674.742371,600.689331 
	C672.494507,600.233765 670.822693,596.568848 669.061829,594.229553 
	C668.162415,593.034668 667.642822,591.553772 666.787537,589.881348 
	C666.301453,590.653931 666.044312,590.872681 666.040955,591.095276 
	C665.886841,601.285767 662.900146,603.533386 652.427551,600.834656 
	C651.347412,600.556335 650.172913,598.252563 650.109131,596.840332 
	C649.847839,591.056091 650.000061,585.253052 650.000061,578.687317 
	C644.332214,598.079834 631.402039,603.085388 617.306824,600.756897 
	C604.415161,598.627197 594.029846,586.946167 596.153320,570.465271 
	C597.820679,557.524841 606.679626,548.517517 620.617310,547.181274 
	C634.434448,545.856628 646.554932,554.612244 650.000000,569.391296 
	C650.000000,563.785828 650.160217,558.174133 649.940735,552.577271 
	C649.805969,549.142334 650.889343,547.676941 654.468933,547.960571 
	C660.512939,548.439392 666.894897,547.627686 672.527161,549.347900 
	C676.720825,550.628845 679.954590,555.052063 683.869141,558.376099 
M614.973694,567.543640 
	C611.226440,572.236572 611.028625,575.962097 614.275635,580.690430 
	C616.295044,583.631165 622.505737,586.020691 625.600830,584.745972 
	C629.956848,582.952026 633.524841,579.652405 633.737061,575.035889 
	C633.924622,570.954163 632.055847,566.719788 627.562256,564.911987 
	C623.190979,563.153503 618.998230,563.172363 614.973694,567.543640 
z"/>
<path fill="#FFFFFF" opacity="1.000000" stroke="none" 
	d="
M320.934387,563.048401 
	C321.289856,568.752808 322.601929,574.595581 321.801178,580.132812 
	C320.146881,591.572998 310.341461,600.554565 298.023926,601.101562 
	C290.344086,601.442566 283.421326,600.048889 277.692017,594.892517 
	C275.138824,592.594666 273.278900,589.526550 270.995056,586.671448 
	C266.668030,595.955627 260.480499,601.677795 249.890839,601.044556 
	C245.425888,600.777588 240.907196,601.256958 236.466431,600.834656 
	C235.213959,600.715637 233.167801,598.620972 233.149811,597.407837 
	C232.922699,582.098999 232.929657,566.784851 233.115631,551.474915 
	C233.133270,550.021484 234.739777,547.353699 235.643707,547.338562 
	C243.381699,547.208679 251.337418,545.472839 258.598053,550.051270 
	C263.737213,553.291931 266.014954,557.773132 266.056946,563.752930 
	C266.077759,566.720093 266.697266,569.683105 267.139832,573.446838 
	C270.529846,566.613708 272.760101,560.667542 276.213501,555.546143 
	C280.026428,549.891602 286.542145,547.687012 293.024902,547.129761 
	C304.206970,546.168640 314.834290,551.556152 320.694977,562.983154 
	C321.016541,563.083740 320.934418,563.048401 320.934387,563.048401 
M306.000031,575.249084 
	C306.000031,574.420654 306.009979,573.592102 305.998383,572.763794 
	C305.934540,568.206848 302.729919,565.482727 299.241302,564.312317 
	C294.928345,562.865234 290.565582,564.015320 287.380981,568.021729 
	C284.924194,571.112549 284.275238,574.118286 285.901978,577.864441 
	C287.949066,582.578674 291.414856,585.151245 296.382477,584.909119 
	C301.747040,584.647583 304.546570,580.945679 306.000031,575.249084 
z"/>
<path fill="#FFFFFF" opacity="1.000000" stroke="none" 
	d="
M775.768799,555.273438 
	C786.029663,567.300720 785.874878,582.584778 775.341675,593.881165 
	C764.085266,605.953125 740.602722,603.286682 733.054749,588.108887 
	C731.303955,584.588379 730.103638,580.794067 728.569092,576.921509 
	C726.054199,585.468811 720.250732,590.313110 712.276611,593.102295 
	C710.963074,593.561768 709.103577,595.319031 709.170471,596.370056 
	C709.455444,600.851929 707.039673,601.090210 703.586548,601.055603 
	C693.000977,600.949402 693.000000,601.046631 693.000000,590.548950 
	C693.000000,578.057495 693.121765,565.564270 692.935242,553.075623 
	C692.868225,548.588318 694.498962,546.956055 699.020935,546.909973 
	C708.203186,546.816528 717.336914,547.054260 723.413574,555.125854 
	C726.480713,559.199768 728.193237,564.293518 729.896301,567.686829 
	C731.802002,558.556580 738.408569,551.193176 749.188660,548.088501 
	C759.167114,545.214478 768.032715,547.779846 775.768799,555.273438 
M746.012939,576.906860 
	C746.835571,578.273987 747.487122,579.787231 748.509277,580.984009 
	C753.892883,587.287231 759.064575,585.696106 763.700500,581.637451 
	C768.601807,577.346375 768.034851,571.011414 762.955688,566.421997 
	C759.544983,563.340210 755.701477,563.228882 751.672119,564.842773 
	C746.522217,566.905762 745.581787,571.166321 746.012939,576.906860 
M710.873108,565.354797 
	C710.252380,565.727173 709.113647,566.073425 709.093384,566.475952 
	C708.941772,569.492737 709.010925,572.520630 709.010925,575.883789 
	C713.796021,573.129517 713.965210,569.837219 710.873108,565.354797 
z"/>
<path fill="#FFFFFF" opacity="1.000000" stroke="none" 
	d="
M835.018738,562.093323 
	C836.335205,558.231262 838.165222,554.872192 838.787781,551.302551 
	C839.469849,547.392090 841.397705,546.682617 844.800049,546.947998 
	C847.937500,547.192505 851.108948,547.000000 854.518494,547.000000 
	C859.897278,563.422119 865.301453,579.792847 870.591675,596.200195 
	C871.470581,598.926025 870.830078,601.063782 867.271606,601.009827 
	C864.109375,600.961853 860.913269,601.264587 857.797424,600.881409 
	C856.369690,600.705872 855.133606,599.195435 853.748169,598.399048 
	C851.693481,597.217834 849.547852,595.170471 847.505493,595.245728 
	C844.820068,595.344727 840.744629,594.188354 839.885925,599.051819 
	C839.687561,600.175293 837.865906,601.862122 836.806885,601.850586 
	C827.367615,601.748352 817.906555,601.603760 808.516113,600.758606 
	C806.613708,600.587341 804.842651,597.522644 803.274536,595.579224 
	C802.243286,594.301208 801.684631,592.641785 800.515808,590.382874 
	C799.281677,601.300415 799.281677,601.300415 784.000000,600.893555 
	C784.000000,599.341125 784.032593,597.760864 783.994873,596.182373 
	C783.670593,582.618530 783.407043,569.052612 782.968079,555.492371 
	C782.759949,549.064026 784.409058,547.451660 791.083252,547.968262 
	C793.565491,548.160339 796.075684,548.035156 798.572021,547.993469 
	C806.819275,547.856018 812.851990,551.592346 817.074768,558.513977 
	C821.408447,565.617554 821.002319,572.514954 816.311646,579.328125 
	C814.971741,581.274231 814.598572,583.013672 816.580811,585.387268 
	C819.314575,588.660767 821.125671,592.704834 823.554321,596.793152 
	C827.417297,585.220459 831.208740,573.862000 835.018738,562.093323 
z"/>
<path fill="#FFFFFF" opacity="1.000000" stroke="none" 
	d="
M174.903061,601.000000 
	C170.365845,600.628662 165.908844,602.633545 163.440750,596.482422 
	C162.075317,593.079346 153.465378,595.185974 150.934723,598.422119 
	C149.585510,600.147522 146.936127,601.652954 144.789963,601.773865 
	C141.474197,601.960693 137.826477,599.811829 134.785141,600.556152 
	C128.869781,602.003662 123.122719,600.433350 117.313629,600.915649 
	C112.386322,601.324707 107.398094,601.000000 101.999977,601.000000 
	C101.999977,587.211426 102.039474,573.766418 101.961121,560.322144 
	C101.948051,558.080383 101.495705,555.829163 101.116440,553.604492 
	C100.546059,550.258789 102.783051,547.036438 106.232094,547.051270 
	C117.290657,547.098816 118.343147,545.133423 118.040489,557.831665 
	C117.830261,566.651855 118.000023,575.481079 118.000023,585.000000 
	C121.833992,585.000000 125.600311,585.222351 129.328598,584.940918 
	C133.514252,584.625000 136.073441,585.895508 136.573456,590.515564 
	C141.041275,577.343506 145.696869,564.229980 149.840195,550.956665 
	C150.832214,547.778687 152.018234,546.737549 155.146133,546.946899 
	C158.616074,547.179138 162.113571,547.000000 165.598114,547.000000 
	C170.504547,562.332581 175.332458,577.430664 180.181808,592.521851 
	C180.328827,592.979431 180.824036,593.331543 180.947266,593.789307 
	C182.670044,600.188782 182.038071,600.994080 174.903061,601.000000 
z"/>
<path fill="#FFFFFF" opacity="1.000000" stroke="none" 
	d="
M321.028931,563.126709 
	C321.027557,560.168823 321.197388,557.153442 320.962097,554.170044 
	C320.459198,547.791931 322.774994,546.707886 327.928284,546.930115 
	C334.576691,547.216919 341.283936,546.565186 347.896637,547.129150 
	C353.837891,547.635986 359.685394,546.953247 365.574646,546.990906 
	C371.902130,547.031372 378.230103,546.990295 384.557831,547.002747 
	C390.520447,547.014465 390.984283,547.503662 390.999939,553.651428 
	C391.000366,553.817932 390.999908,553.984436 391.000031,554.150940 
	C391.006958,563.582703 390.799164,563.801758 381.000000,564.127075 
	C381.000000,574.539185 380.805695,584.984680 381.093201,595.416870 
	C381.212433,599.741943 380.036041,601.226318 375.534180,601.104736 
	C365.006012,600.820374 365.000000,601.043274 365.000000,590.502808 
	C365.000000,581.861145 365.000000,573.219543 365.000000,564.650330 
	C361.764618,563.933533 358.738495,563.263123 355.706238,562.591370 
	C353.102051,563.199524 350.311462,563.851257 346.691223,564.696655 
	C346.691223,576.203247 346.691223,588.236938 346.691223,600.993347 
	C341.553558,600.993347 337.107269,601.317627 332.771515,600.768616 
	C331.667511,600.628784 330.172150,597.739014 330.123810,596.075928 
	C329.862701,587.091431 330.000061,578.095398 330.000000,569.103333 
	C330.000000,567.477234 330.000000,565.851074 330.000000,564.831787 
	C326.803741,563.891052 324.192169,563.122375 321.257507,562.701050 
	C320.934418,563.048401 321.016541,563.083740 321.028931,563.126709 
z"/>
<path fill="#FFFFFF" opacity="1.000000" stroke="none" 
	d="
M1369.000000,582.099426 
	C1369.000000,588.221924 1369.000000,593.859375 1369.000000,599.352966 
	C1368.450806,599.658142 1368.179199,599.941101 1367.908081,599.940613 
	C1354.684448,599.918274 1357.181885,601.574097 1357.030518,589.358643 
	C1356.888184,577.860901 1356.799316,566.354858 1357.090820,554.862732 
	C1357.221802,549.701050 1357.761719,544.406616 1359.121582,539.448303 
	C1362.261841,527.998352 1370.156494,520.576538 1381.610840,518.359802 
	C1393.216797,516.113770 1404.313354,518.527100 1412.400269,528.018372 
	C1420.627686,537.674622 1422.113892,548.943542 1417.937012,560.789734 
	C1414.244507,571.262329 1406.391724,577.765198 1395.782471,579.794006 
	C1386.427124,581.583130 1377.321899,579.478455 1369.000000,572.710815 
	C1369.000000,576.166992 1369.000000,578.890686 1369.000000,582.099426 
M1375.552246,564.031921 
	C1379.645264,565.687927 1383.639648,568.418518 1387.849243,568.804871 
	C1402.288940,570.130127 1411.763550,553.981934 1406.123901,541.332092 
	C1402.354980,532.878418 1391.795288,527.215210 1384.585327,529.734619 
	C1369.029175,535.170410 1364.392090,550.814087 1375.552246,564.031921 
z"/>
<path fill="#FFFFFF" opacity="1.000000" stroke="none" 
	d="
M1218.000000,557.019409 
	C1218.627441,550.546814 1218.456665,544.348450 1220.044434,538.639160 
	C1223.620728,525.779358 1234.667725,518.172668 1247.826050,517.936279 
	C1255.915894,517.791016 1263.099976,519.319519 1269.532837,524.742004 
	C1274.837402,529.213623 1278.126221,534.627014 1279.585571,541.157471 
	C1282.037354,552.129211 1280.234009,562.214050 1272.603027,570.926697 
	C1263.864502,580.903870 1244.431396,583.581970 1233.453003,575.121521 
	C1232.496216,574.384155 1231.295288,573.963623 1230.000000,573.287537 
	C1230.000000,580.701843 1229.790039,587.848633 1230.082275,594.974854 
	C1230.245728,598.962158 1228.956177,600.509155 1224.973633,600.043762 
	C1222.860229,599.796814 1220.693970,600.000000 1218.000000,600.000000 
	C1218.000000,585.697693 1218.000000,571.606689 1218.000000,557.019409 
M1237.060791,533.424866 
	C1230.586182,540.793579 1227.301514,550.394104 1232.519287,559.184692 
	C1237.674683,567.870483 1248.150879,571.372986 1257.764160,567.078308 
	C1267.674927,562.650818 1269.863281,550.735413 1267.323730,542.992554 
	C1263.342163,530.853027 1250.108765,524.330139 1237.060791,533.424866 
z"/>
<path fill="#FFFFFF" opacity="1.000000" stroke="none" 
	d="
M1347.989014,538.255981 
	C1348.666870,540.968628 1349.548706,543.236572 1349.941040,545.586243 
	C1350.435059,548.545471 1349.599487,550.672180 1346.457886,552.284912 
	C1337.520264,556.873047 1328.055176,556.088745 1318.602173,555.818054 
	C1312.812012,555.652161 1307.026855,555.313782 1300.740601,555.030457 
	C1304.979370,567.354309 1319.874023,573.872620 1330.953125,564.503845 
	C1335.127319,560.973999 1340.141724,561.121460 1343.739380,565.426331 
	C1344.441284,566.266235 1344.520264,568.640320 1343.850464,569.459595 
	C1335.121704,580.134766 1318.444946,582.640747 1306.861938,577.954895 
	C1287.811523,570.248169 1282.582031,547.469421 1293.351318,530.608643 
	C1298.381592,522.733093 1306.353394,518.191528 1316.374023,517.916077 
	C1325.916138,517.653625 1334.712280,519.125793 1341.136841,526.792542 
	C1343.891479,530.079529 1345.724121,534.139038 1347.989014,538.255981 
M1304.593018,544.995361 
	C1306.652344,544.663574 1308.711304,544.051941 1310.771240,544.048340 
	C1319.802124,544.032532 1328.885864,546.813171 1337.847656,543.456970 
	C1334.792603,532.824341 1323.232666,527.556519 1315.784790,529.130371 
	C1307.126831,530.959961 1299.699097,539.246521 1300.503662,545.453003 
	C1301.577026,545.302002 1302.650879,545.150940 1304.593018,544.995361 
z"/>
<path fill="#FFFFFF" opacity="1.000000" stroke="none" 
	d="
M1011.075256,601.000000 
	C1005.024353,602.545959 1003.016052,598.717224 1000.949951,594.741028 
	C998.614075,590.245544 996.069336,585.858643 992.999878,580.312256 
	C992.999878,586.693237 992.912476,591.897095 993.035950,597.095947 
	C993.099731,599.781982 992.246826,600.906250 989.366699,601.063232 
	C976.995300,601.737915 977.000000,601.823792 977.000000,589.353149 
	C977.000000,575.740417 977.000000,562.127686 977.000000,548.371521 
	C981.618530,548.033081 985.980408,547.447693 990.327454,547.542053 
	C991.807373,547.574219 993.796204,548.986511 994.614807,550.336731 
	C998.014221,555.943970 1001.055542,561.768311 1005.000122,568.910400 
	C1005.000122,562.279175 1005.191711,556.994629 1004.932373,551.732361 
	C1004.761292,548.260986 1006.290405,547.021118 1009.427734,547.001160 
	C1009.594116,547.000122 1009.760742,547.006348 1009.926819,546.999268 
	C1021.000000,546.528870 1021.000000,546.528809 1021.000000,557.494629 
	C1021.000000,569.805603 1021.000488,582.116577 1020.999817,594.427551 
	C1020.999390,600.997803 1020.998474,600.997803 1014.541931,600.999939 
	C1013.543701,601.000244 1012.545532,601.000000 1011.075256,601.000000 
z"/>
<path fill="#FFFFFF" opacity="1.000000" stroke="none" 
	d="
M1090.000000,575.000000 
	C1090.000000,417.910065 1090.000000,261.320129 1090.000000,104.340569 
	C1091.254639,104.236313 1092.425659,104.139008 1093.812744,104.023750 
	C1093.812744,269.401367 1093.812744,434.437897 1093.812744,599.699585 
	C1091.386108,600.311523 1089.829956,600.434021 1089.934448,596.988464 
	C1090.151733,589.831543 1090.000000,582.663513 1090.000000,575.000000 
z"/>
<path fill="#FFFFFF" opacity="1.000000" stroke="none" 
	d="
M937.214661,549.956238 
	C953.801819,541.941162 971.627319,551.591675 975.352783,566.864319 
	C979.745972,584.874207 968.247437,600.701904 950.460022,601.233398 
	C937.264282,601.627686 926.010498,592.576477 923.797424,582.302063 
	C921.276672,570.599243 923.463623,558.761780 934.534241,551.888672 
	C935.365967,551.372314 936.066223,550.644348 937.214661,549.956238 
M943.077881,582.617065 
	C949.852478,587.237610 955.143555,584.345764 958.287903,580.118530 
	C961.575317,575.699097 960.302368,569.984863 955.456665,565.991821 
	C951.717102,562.910461 944.783691,563.080933 941.784424,566.848267 
	C938.541565,570.921509 936.814331,577.346802 943.077881,582.617065 
z"/>
<path fill="#FFFFFF" opacity="1.000000" stroke="none" 
	d="
M28.269146,569.339600 
	C30.661510,562.634583 32.699535,556.222351 35.088062,549.943359 
	C35.561150,548.699707 37.375736,547.962219 38.587234,547.011047 
	C38.690197,546.930298 38.911633,547.005310 39.077724,546.999268 
	C49.844482,546.607727 49.976639,546.564270 53.351646,556.844543 
	C57.492348,569.457092 61.438213,582.134583 65.356720,594.818420 
	C66.957657,600.000610 66.149757,600.970825 60.843151,600.996765 
	C57.357281,601.013794 53.871262,601.000000 50.961288,600.056396 
	C48.832928,598.374084 46.871967,595.578003 44.543358,595.227966 
	C38.657940,594.343323 37.147366,595.615234 34.830696,600.499146 
	C31.052628,601.005554 27.386091,601.675720 23.690393,601.943604 
	C19.766214,602.228088 18.205204,598.957458 19.687895,594.713928 
	C22.589207,586.410217 25.267286,578.028564 28.269146,569.339600 
z"/>
<path fill="#FFFFFF" opacity="1.000000" stroke="none" 
	d="
M1428.495728,540.987061 
	C1426.114014,528.109375 1433.635254,520.152405 1442.221802,518.512085 
	C1452.450317,516.558167 1462.786011,517.304626 1471.530273,524.236755 
	C1472.330322,524.870911 1473.003418,526.653198 1472.692627,527.534973 
	C1471.058105,532.173828 1465.142090,533.754883 1460.587158,531.255615 
	C1456.172974,528.833618 1451.343750,526.850586 1446.440552,529.156799 
	C1443.928101,530.338501 1441.301514,532.741638 1440.379517,535.210205 
	C1439.933228,536.404846 1442.921631,540.013000 1445.009766,540.807678 
	C1450.804443,543.012878 1456.983032,544.184021 1462.935547,546.006287 
	C1471.298340,548.566589 1474.618896,553.293274 1475.100586,560.900940 
	C1475.621460,569.124756 1470.745605,575.669617 1463.128784,578.049683 
	C1449.904663,582.182007 1437.849243,580.760986 1427.392090,571.071960 
	C1426.711304,570.441162 1425.865723,568.817139 1426.102417,568.551392 
	C1428.102295,566.307251 1430.124512,563.939880 1432.613281,562.350830 
	C1433.503906,561.782166 1435.899292,562.935242 1437.252563,563.836182 
	C1443.054443,567.698853 1448.899292,570.488220 1456.202515,568.098755 
	C1459.798096,566.922424 1462.917603,565.070618 1462.802124,561.385559 
	C1462.663452,556.959656 1458.495728,555.966797 1454.837891,554.985107 
	C1448.824829,553.371277 1442.530273,552.322205 1436.957031,549.736145 
	C1433.643555,548.198608 1431.483276,544.176208 1428.495728,540.987061 
z"/>
<path fill="#FFFFFF" opacity="1.000000" stroke="none" 
	d="
M195.512817,601.991455 
	C186.817398,599.740295 182.182800,594.291077 180.415649,585.990295 
	C179.695007,582.605225 180.387054,580.946472 184.025497,580.989868 
	C187.845306,581.035461 191.666107,581.000122 195.373123,581.000122 
	C197.056763,583.465210 197.637039,588.111511 203.277267,583.587280 
	C198.431946,581.424194 194.527252,579.768311 190.698547,577.952148 
	C184.363968,574.947510 179.397141,565.347412 183.652664,555.826599 
	C187.047073,548.232422 195.666870,544.418884 203.656693,546.915405 
	C209.875000,548.858398 214.772171,551.855896 216.086990,558.980408 
	C217.115295,564.552490 216.347305,565.835205 210.609344,565.996033 
	C209.613831,566.023926 208.616867,566.000000 207.041855,566.000000 
	C208.383789,567.128906 209.296692,568.048035 210.350204,568.758850 
	C217.441208,573.542786 220.507080,581.116760 217.794952,589.299133 
	C215.366943,596.624329 210.272400,602.233398 200.443954,602.004822 
	C198.947418,601.969971 197.449387,601.999207 195.512817,601.991455 
z"/>
<path fill="#FFFFFF" opacity="1.000000" stroke="none" 
	d="
M593.623901,551.233093 
	C595.010925,552.172546 596.183594,552.790771 597.098633,553.675354 
	C597.882751,554.433472 599.109131,556.014893 598.877380,556.344543 
	C596.583984,559.606934 594.332764,563.027527 591.392639,565.642029 
	C590.246521,566.661133 586.982178,566.475220 585.368164,565.589417 
	C577.980347,561.534485 571.651550,563.988647 568.907288,571.979492 
	C567.159546,577.068604 570.140442,579.846558 573.219482,582.692871 
	C575.966736,585.232483 579.011658,585.823059 582.621582,584.101074 
	C588.802612,581.152893 595.488464,583.710083 598.541870,590.188416 
	C598.970337,591.097656 598.248962,593.012878 597.458008,593.959717 
	C591.080505,601.594238 577.981750,603.076599 569.446594,599.659180 
	C550.171570,591.941833 546.604431,569.543457 559.636475,555.236023 
	C568.037842,546.012451 581.468750,543.677063 593.623901,551.233093 
z"/>
<path fill="#FFFFFF" opacity="1.000000" stroke="none" 
	d="
M409.000000,564.010010 
	C409.000000,571.146667 409.000000,577.785400 409.000000,585.000183 
	C413.459198,585.000183 417.728882,585.132080 421.985779,584.955811 
	C425.040039,584.829285 426.181427,586.003967 426.041870,589.034668 
	C425.867035,592.832092 425.999817,596.643677 425.999817,600.723450 
	C415.029175,600.723450 404.289276,600.723450 392.803406,600.723450 
	C392.541626,597.497437 392.062592,594.162292 392.037201,590.823608 
	C391.943573,578.503052 391.977631,566.181335 392.009705,553.860107 
	C392.025146,547.925720 392.983551,547.009766 398.832428,547.000427 
	C400.330963,546.998047 401.845703,547.141907 403.324951,546.973022 
	C407.562469,546.489258 408.849365,548.995667 408.971313,552.523804 
	C409.097778,556.182495 408.999817,559.848999 409.000000,564.010010 
z"/>
<path fill="#FFFFFF" opacity="1.000000" stroke="none" 
	d="
M895.000000,585.990112 
	C894.999756,590.147339 895.304199,593.846375 894.838623,597.445740 
	C894.669556,598.752625 892.748718,600.736877 891.479675,600.857361 
	C879.008850,602.041199 879.004517,601.948120 878.998413,589.485535 
	C878.994446,581.334839 878.975891,573.184204 878.955139,565.033508 
	C878.954773,564.885437 878.844360,564.737610 878.773926,564.561096 
	C878.545532,564.400757 878.301514,564.081055 878.045837,564.071472 
	C870.000183,563.768921 869.999939,563.773499 870.000000,555.904114 
	C870.000000,554.406982 870.116638,552.898865 869.975891,551.415100 
	C869.680359,548.300842 870.705261,546.869446 874.125916,546.940491 
	C882.772217,547.120239 891.427551,546.889282 900.071716,547.114624 
	C901.432434,547.150146 903.756958,548.556396 903.912903,549.589050 
	C904.482788,553.362366 905.365234,557.657410 904.068054,560.941406 
	C903.221558,563.084351 898.811523,563.819641 895.000000,565.669861 
	C895.000000,571.276245 895.000000,578.384399 895.000000,585.990112 
z"/>
<path fill="#FFFFFF" opacity="1.000000" stroke="none" 
	d="
M88.779297,600.968750 
	C85.302406,600.997131 82.281517,600.752197 79.317719,601.058899 
	C75.056343,601.499939 73.938805,599.416382 73.969978,595.656494 
	C74.056648,585.204773 74.000053,574.751831 74.000053,563.983643 
	C72.162987,563.983643 70.616440,564.298157 69.269325,563.913818 
	C66.942200,563.249756 64.758957,562.496887 64.928810,559.059204 
	C65.542740,546.633545 62.040684,546.922485 76.571526,546.995056 
	C82.562164,547.024963 88.556053,547.115173 94.542816,546.960083 
	C98.630081,546.854187 100.327438,548.668335 100.007515,552.633423 
	C99.954155,553.294739 99.999908,553.964111 100.000015,554.629761 
	C100.001495,563.867737 100.001503,563.867737 90.000008,564.085815 
	C90.000008,573.115845 90.063469,582.179504 89.966095,591.241455 
	C89.931328,594.477051 89.507202,597.708435 88.779297,600.968750 
z"/>
<path fill="#FFFFFF" opacity="1.000000" stroke="none" 
	d="
M906.000000,587.968140 
	C906.000000,576.001343 906.128723,564.526855 905.935669,553.057800 
	C905.860107,548.570557 907.501221,546.815674 912.023071,546.944092 
	C923.755249,547.277222 921.902954,545.404236 921.977722,557.027222 
	C922.070679,571.476318 922.000000,585.926453 922.000000,600.998108 
	C917.595642,600.998108 913.313904,601.286438 909.118347,600.812195 
	C907.948608,600.680054 906.400208,598.405396 906.139160,596.918091 
	C905.657715,594.175964 906.000549,591.289185 906.000000,587.968140 
z"/>
<path fill="#FFFFFF" opacity="1.000000" stroke="none" 
	d="
M444.000000,585.990051 
	C443.999786,590.144165 444.303375,593.839783 443.839172,597.436401 
	C443.670197,598.745544 441.759552,600.735718 440.494080,600.857117 
	C428.008881,602.054260 427.999969,601.961304 428.000000,589.519592 
	C428.000000,577.220520 428.079224,564.920654 427.954285,552.622864 
	C427.914001,548.659729 429.381775,546.970398 433.454437,546.944336 
	C444.000702,546.876831 444.000000,546.766541 444.000000,557.071594 
	C444.000000,566.545227 444.000000,576.018799 444.000000,585.990051 
z"/>
<path fill="#FFFFFF" opacity="1.000000" stroke="none" 
	d="
M1486.000000,527.069214 
	C1486.000000,524.593445 1486.000000,522.609375 1486.000000,520.314331 
	C1489.895020,520.314331 1493.633911,520.314331 1497.707520,520.314331 
	C1497.793335,521.229370 1497.985229,522.328979 1497.986450,523.428894 
	C1498.005615,540.415894 1497.829834,557.405579 1498.104126,574.388123 
	C1498.186035,579.453796 1495.381592,579.104675 1492.067017,579.021912 
	C1488.929199,578.943542 1485.797485,579.796326 1485.895630,574.522949 
	C1486.187012,558.873718 1486.000000,543.215576 1486.000000,527.069214 
z"/>
<path fill="#FFFFFF" opacity="1.000000" stroke="none" 
	d="
M1490.340088,500.012482 
	C1494.746338,499.949585 1497.801636,500.745087 1499.230103,505.394135 
	C1500.336304,508.994171 1499.355591,512.112366 1496.864380,513.266724 
	C1494.200195,514.501221 1490.106567,514.716858 1487.480713,513.522339 
	C1482.575073,511.290741 1484.252075,503.070740 1490.340088,500.012482 
z"/>
<path fill="#FFFFFF" opacity="1.000000" stroke="none" 
	d="
M1508.918213,566.000793 
	C1514.621094,566.893799 1516.028198,570.620850 1514.797852,575.013306 
	C1514.244385,576.988770 1511.752441,579.308960 1509.731812,579.803284 
	C1505.340698,580.877441 1502.277100,578.267273 1501.376099,573.826538 
	C1500.587769,569.941040 1503.067505,567.221130 1508.918213,566.000793 
z"/>
<path fill="#000000" opacity="1.000000" stroke="none" 
	d="
M498.000000,343.000061 
	C498.000031,336.007141 498.063995,329.513245 497.968445,323.021729 
	C497.930511,320.447083 498.499207,318.888123 501.524445,318.972137 
	C514.622314,319.335999 527.841736,317.740265 540.668945,321.975098 
	C557.884521,327.658722 572.063293,336.451416 576.326599,355.754852 
	C578.249207,364.459961 574.571838,371.592041 569.432739,377.973572 
	C560.002502,389.683685 547.262573,396.237427 532.616882,397.769348 
	C521.374634,398.945282 509.910858,398.003418 498.000000,398.003418 
	C498.000000,380.331299 498.000000,361.915680 498.000000,343.000061 
z"/>
<path fill="#000000" opacity="1.000000" stroke="none" 
	d="
M525.153076,227.367691 
	C516.173035,228.769882 507.473541,229.885117 498.009766,231.098328 
	C498.009766,220.110291 497.947784,210.366348 498.114655,200.626358 
	C498.129791,199.743378 499.606323,198.140808 500.423065,198.128586 
	C511.629364,197.960754 522.886475,197.217941 532.270996,205.592941 
	C539.245911,211.817505 539.667114,217.105881 532.452637,222.937134 
	C530.362244,224.626770 527.786682,225.716171 525.153076,227.367691 
z"/>
<path fill="#000000" opacity="1.000000" stroke="none" 
	d="
M215.017365,287.865784 
	C222.268112,310.024292 229.501038,331.767761 236.825775,353.787170 
	C217.852631,353.787170 199.161728,353.787170 179.479126,353.787170 
	C189.145996,325.393738 198.705872,297.314545 208.801178,267.662781 
	C211.142105,275.136047 213.070816,281.293427 215.017365,287.865784 
z"/>
<path fill="#EF4C4E" opacity="1.000000" stroke="none" 
	d="
M1234.193726,175.204163 
	C1260.622925,146.285980 1292.924805,128.696808 1331.163696,122.369278 
	C1376.320923,114.896912 1417.627808,124.883408 1455.295166,150.702026 
	C1458.571899,152.948059 1458.297119,155.216599 1457.283203,158.353134 
	C1443.940796,199.626816 1424.142822,237.471817 1396.434570,270.894745 
	C1351.755371,324.789185 1296.293213,362.853058 1229.123413,383.462006 
	C1225.345215,384.621246 1223.279419,384.115692 1220.953979,380.709808 
	C1203.583618,355.268280 1193.481079,327.347992 1191.845947,296.533417 
	C1189.402100,250.477692 1203.675903,210.173737 1234.193726,175.204163 
z"/>
<path fill="#0D71AF" opacity="1.000000" stroke="none" 
	d="
M1242.403320,405.604218 
	C1238.328491,401.263062 1234.503052,397.170746 1229.925171,392.273468 
	C1244.087646,388.321381 1257.050903,384.253540 1270.234863,381.110565 
	C1307.558716,372.212830 1345.034912,363.951447 1382.329346,354.935303 
	C1407.302979,348.897858 1431.472168,340.521942 1452.825317,325.650116 
	C1493.011841,297.661285 1510.971191,251.413345 1500.342041,203.651749 
	C1500.057617,202.373962 1499.984619,201.049149 1500.943115,199.207169 
	C1504.323486,205.654022 1508.040771,211.948608 1511.033691,218.570633 
	C1553.903442,313.425354 1498.792480,424.834229 1396.806152,447.757751 
	C1338.559326,460.849915 1286.769165,446.560913 1242.403320,405.604218 
z"/>
<path fill="#000000" opacity="1.000000" stroke="none" 
	d="
M615.249023,567.264160 
	C618.998230,563.172363 623.190979,563.153503 627.562256,564.911987 
	C632.055847,566.719788 633.924622,570.954163 633.737061,575.035889 
	C633.524841,579.652405 629.956848,582.952026 625.600830,584.745972 
	C622.505737,586.020691 616.295044,583.631165 614.275635,580.690430 
	C611.028625,575.962097 611.226440,572.236572 615.249023,567.264160 
z"/>
<path fill="#000000" opacity="1.000000" stroke="none" 
	d="
M305.999573,575.667358 
	C304.546570,580.945679 301.747040,584.647583 296.382477,584.909119 
	C291.414856,585.151245 287.949066,582.578674 285.901978,577.864441 
	C284.275238,574.118286 284.924194,571.112549 287.380981,568.021729 
	C290.565582,564.015320 294.928345,562.865234 299.241302,564.312317 
	C302.729919,565.482727 305.934540,568.206848 305.998383,572.763794 
	C306.009979,573.592102 306.000031,574.420654 305.999573,575.667358 
z"/>
<path fill="#000000" opacity="1.000000" stroke="none" 
	d="
M746.006958,576.492554 
	C745.581787,571.166321 746.522217,566.905762 751.672119,564.842773 
	C755.701477,563.228882 759.544983,563.340210 762.955688,566.421997 
	C768.034851,571.011414 768.601807,577.346375 763.700500,581.637451 
	C759.064575,585.696106 753.892883,587.287231 748.509277,580.984009 
	C747.487122,579.787231 746.835571,578.273987 746.006958,576.492554 
z"/>
<path fill="#000000" opacity="1.000000" stroke="none" 
	d="
M711.159485,565.664307 
	C713.965210,569.837219 713.796021,573.129517 709.010925,575.883789 
	C709.010925,572.520630 708.941772,569.492737 709.093384,566.475952 
	C709.113647,566.073425 710.252380,565.727173 711.159485,565.664307 
z"/>
<path fill="#000000" opacity="1.000000" stroke="none" 
	d="
M1375.280396,563.772705 
	C1364.392090,550.814087 1369.029175,535.170410 1384.585327,529.734619 
	C1391.795288,527.215210 1402.354980,532.878418 1406.123901,541.332092 
	C1411.763550,553.981934 1402.288940,570.130127 1387.849243,568.804871 
	C1383.639648,568.418518 1379.645264,565.687927 1375.280396,563.772705 
z"/>
<path fill="#000000" opacity="1.000000" stroke="none" 
	d="
M1237.384399,533.225586 
	C1250.108765,524.330139 1263.342163,530.853027 1267.323730,542.992554 
	C1269.863281,550.735413 1267.674927,562.650818 1257.764160,567.078308 
	C1248.150879,571.372986 1237.674683,567.870483 1232.519287,559.184692 
	C1227.301514,550.394104 1230.586182,540.793579 1237.384399,533.225586 
z"/>
<path fill="#000000" opacity="1.000000" stroke="none" 
	d="
M1304.158936,544.997620 
	C1302.650879,545.150940 1301.577026,545.302002 1300.503662,545.453003 
	C1299.699097,539.246521 1307.126831,530.959961 1315.784790,529.130371 
	C1323.232666,527.556519 1334.792603,532.824341 1337.847656,543.456909 
	C1328.885864,546.813171 1319.802124,544.032532 1310.771240,544.048340 
	C1308.711304,544.051941 1306.652344,544.663574 1304.158936,544.997620 
z"/>
<path fill="#000000" opacity="1.000000" stroke="none" 
	d="
M942.814453,582.324341 
	C936.814331,577.346802 938.541565,570.921509 941.784424,566.848267 
	C944.783691,563.080933 951.717102,562.910461 955.456665,565.991821 
	C960.302368,569.984863 961.575317,575.699097 958.287903,580.118530 
	C955.143555,584.345764 949.852478,587.237610 942.814453,582.324341 
z"/>
</svg>